<?xml version="1.0" encoding="UTF-8" standalone="no"?>
<!-- Created with Inkscape (http://www.inkscape.org/) -->

<svg
   xmlns:dc="http://purl.org/dc/elements/1.1/"
   xmlns:cc="http://creativecommons.org/ns#"
   xmlns:rdf="http://www.w3.org/1999/02/22-rdf-syntax-ns#"
   xmlns:svg="http://www.w3.org/2000/svg"
   xmlns="http://www.w3.org/2000/svg"
   xmlns:sodipodi="http://sodipodi.sourceforge.net/DTD/sodipodi-0.dtd"
   xmlns:inkscape="http://www.inkscape.org/namespaces/inkscape"
   width="337.6954"
   height="296.79126"
   id="svg3313"
   version="1.1"
   inkscape:version="0.91 r13725"
   sodipodi:docname="AnyBodyPyTools Logo.svg"
   inkscape:export-filename="C:\Users\mel\Documents\AnyPyTools\docs\_static\anypytools_logo.png"
   inkscape:export-xdpi="41.782955"
   inkscape:export-ydpi="41.782955">
  <defs
     id="defs3315" />
  <sodipodi:namedview
     id="base"
     pagecolor="#ffffff"
     bordercolor="#000000"
     borderopacity="1"
     inkscape:pageopacity="1"
     inkscape:pageshadow="2"
     inkscape:zoom="0.8817162"
     inkscape:cx="167.17961"
     inkscape:cy="-84.035974"
     inkscape:document-units="px"
     inkscape:current-layer="layer1"
     showgrid="false"
     fit-margin-top="0"
     fit-margin-left="0"
     fit-margin-right="0"
     fit-margin-bottom="0"
     inkscape:window-width="1920"
     inkscape:window-height="1017"
     inkscape:window-x="1592"
     inkscape:window-y="-8"
     inkscape:window-maximized="1"
     showguides="true"
     inkscape:guide-bbox="true"
     showborder="true"
     borderlayer="true"
     inkscape:showpageshadow="true" />
  <metadata
     id="metadata3318">
    <rdf:RDF>
      <cc:Work
         rdf:about="">
        <dc:format>image/svg+xml</dc:format>
        <dc:type
           rdf:resource="http://purl.org/dc/dcmitype/StillImage" />
        <dc:title></dc:title>
      </cc:Work>
    </rdf:RDF>
  </metadata>
  <g
     inkscape:label="Layer 1"
     inkscape:groupmode="layer"
     id="layer1"
     transform="translate(-149.40739,-278.93913)">
    <path
       inkscape:connector-curvature="0"
       id="path2993"
       d="m 355.38742,381.04746 -14.27623,0 c -0.81968,0 -1.36614,0.47816 -1.9126,0.8197 -0.61476,0.54647 -0.81968,1.16123 -0.81968,1.91262 l 0.54645,82.72105 -38.59361,-83.60905 c -0.20492,-0.61477 -0.34154,-1.22955 -0.9563,-1.36616 -0.20492,-0.47816 -0.75138,-0.47816 -1.36615,-0.47816 l -17.96481,0 c -0.81968,0 -1.36614,0.47816 -1.77598,0.8197 -0.54646,0.54647 -0.95631,1.16123 -0.95631,1.91262 l 0,112.98152 c 0,0.61477 0.40985,1.36615 0.95631,1.98093 0.40984,0.54647 0.9563,0.75139 1.77598,0.75139 l 14.48114,0 c 0.75139,0 1.36615,-0.20492 1.91261,-0.75139 0.40984,-0.61478 0.81968,-1.36616 0.81968,-1.98093 l -0.81968,-82.31121 38.66191,83.54076 c 0,0.47815 0.61477,0.75138 0.75138,0.888 0.61477,0.40985 1.16122,0.61477 1.70768,0.61477 l 17.82821,0 c 0.9563,0 1.36614,-0.20492 1.9126,-0.75139 0.61476,-0.61478 0.81968,-1.36616 0.81968,-1.98093 l 0,-112.98152 c 0,-0.75139 -0.20492,-1.36615 -0.81968,-1.91262 -0.54646,-0.34154 -0.9563,-0.8197 -1.9126,-0.8197"
       style="fill:#96092b;fill-opacity:1;fill-rule:evenodd;stroke:none;stroke-width:0.80000001;stroke-miterlimit:4;stroke-dasharray:none" />
    <path
       inkscape:connector-curvature="0"
       id="path2995"
       d="m 408.25725,379.6813 c -0.61478,-0.75139 -0.95631,-0.888 -1.57108,-1.36616 -0.75138,-0.13662 -1.36614,-0.13662 -2.11752,0.47816 l -13.66145,6.96742 c -0.75138,0.20492 -1.36615,0.81969 -1.36615,1.57108 -0.20493,0.8197 -0.20493,1.36616 0.40985,2.18586 l 36.06624,64.55111 0,42.69253 c 0,0.61477 0.20492,1.36615 0.75138,1.98093 0.40984,0.54647 1.0246,0.75139 1.77598,0.75139 l 14.48115,0 c 0.75138,0 1.36614,-0.20492 1.9126,-0.75139 0.61476,-0.61478 0.81968,-1.36616 0.81968,-1.98093 l 0,-42.69253 36.27116,-64.55111 c 0.20492,-0.40985 0.20492,-1.02462 0.20492,-1.36616 0,-0.40985 0,-1.02463 -0.20492,-1.36617 -0.20492,-0.40984 -0.75138,-0.81969 -1.16123,-1.02461 L 467.2064,378.7933 c -0.61476,-0.61478 -1.36614,-0.61478 -1.9809,-0.47816 -0.75138,0.47816 -1.36615,0.61477 -1.57107,1.36616 L 435.99,433.16651 408.25725,379.6813 Z"
       style="fill:#96092b;fill-opacity:1;fill-rule:evenodd;stroke:none;stroke-width:0.80000001;stroke-miterlimit:4;stroke-dasharray:none" />
    <path
       inkscape:connector-curvature="0"
       id="path3049"
       d="m 277.03687,338.21053 c 0,0 -2.11741,4.83981 0.70579,10.88958 2.82319,5.94893 -0.20167,1.61327 -3.12568,-2.52074 -2.92401,-4.33566 -2.41988,0.60498 -2.62153,2.82322 0,2.21826 -0.80663,0.60498 -1.10911,-5.64644 -0.40332,-6.25143 -16.43502,-18.35096 -19.964,-6.75557 -3.529,11.59538 -2.72237,2.01659 -1.20993,-4.4365"
       style="fill:#a7a6a6;fill-opacity:1;fill-rule:nonzero;stroke:none" />
    <path
       style="fill:#ffffff;fill-opacity:1;fill-rule:nonzero;stroke:none"
       d="m 295.75906,280.84543 c -11.48555,-1.34329 -1.71225,3.15354 3.21884,6.32127 5.35948,3.40445 11.23901,6.80026 16.28116,10.20998 -3.62582,2.16391 -6.34005,5.6753 -8.4375,9.125 -14.5209,2.67274 -29.07118,-4.82086 -43.5,-0.25 -10.66503,2.74891 -14.29443,14.54975 -18.09375,23.5625 -1.0638,4.93741 -4.4687,10.03557 -3.71875,14.96875 1.68275,2.93973 4.511,-0.98143 5.40625,-1.28125 1.81171,3.07484 4.34824,-2.43556 4.625,1.59375 0.63894,2.56061 4.25542,3.0712 5.25,0.71875 0.28525,3.63754 5.24506,5.34125 6.75,1.46875 0.0427,3.56675 4.22262,5.32372 6.28125,3.59375 1.69673,3.07067 4.81446,1.03627 4.25,-1.625 1.91776,3.8421 5.30244,5.26137 8.71875,7.34375 3.87549,1.81089 6.13841,-3.03718 6.25,-5.71875 2.15498,2.5031 6.36526,8.45478 9.84375,4.40625 1.13906,-1.1585 -0.80558,-4.41761 1.59375,-2.5625 2.17252,1.74421 9.07999,4.29948 7.9375,-0.96875 -3.53401,-5.1542 -10.97171,-5.69434 -15.8125,-9.46875 -5.1378,-3.63637 -13.23333,-6.95986 -13.90625,-14 0.7748,-7.77486 7.13243,-16.62601 15.875,-14.5 3.27235,0.25949 6.61741,0.56067 9.875,0.0937 -0.86797,3.51157 -1.29158,7.45781 3.5625,7.6875 20.95675,8.90357 42.92819,18.42414 58.65625,35.28125 2.22819,2.53252 4.30178,5.35922 5,8.71875 26.88643,-7.08943 54.98267,-11.4792 82.90625,-8.8125 5.03781,-6.33607 4.89916,-15.09383 3.6875,-22.71875 9.6146,-0.76021 19.22774,-1.53892 28.84375,-2.28125 -30.76646,-17.50705 -61.33801,-35.7551 -92.21875,-52.8125 -33.04167,0.63542 -66.08333,1.27083 -99.125,1.90625 z"
       id="path3049-1"
       inkscape:connector-curvature="0" />
    <path
       inkscape:connector-curvature="0"
       id="path2997"
       d="m 186.53183,436.5136 13.115,-54.23659 12.70515,54.23659 -25.82015,0 z m 2.73229,-86.47799 c -0.54645,0.47815 -0.75137,0.81969 -1.09291,1.63939 l -36.5444,143.31029 0,1.7077 c 0.0683,0.13661 0.13661,0.27323 0.20493,0.47815 0.34153,0.34155 0.9563,0.95631 1.70768,0.95631 l 14.27621,4.09849 c 0.40985,0 0.75138,0.34155 1.36615,0 0.40985,0 0.81969,-0.20492 1.36615,-0.75138 0.40984,-0.27324 0.61476,-0.81971 0.61476,-1.22955 l 10.92917,-45.42485 34.97332,0 11.06578,45.42485 c 0,0.40984 0.20492,0.95631 0.40985,1.22955 0.34153,0.54646 0.9563,0.75138 1.36614,0.75138 0.34154,0.34155 0.9563,0.34155 1.36615,0 l 14.20791,-3.75694 c 0.75138,-0.34155 1.36615,-0.95631 1.57107,-1.29786 0.54646,-0.81969 0.54646,-1.36615 0.54646,-2.18585 L 210.98584,351.675 c -0.20493,-0.8197 -0.61477,-1.16124 -1.02461,-1.63939 -0.47816,-0.27324 -1.09292,-0.47816 -1.63938,-0.47816 l -0.0683,0 -17.35005,0 -0.13662,0 c -0.68307,0 -1.22953,0.20492 -1.50276,0.47816"
       style="fill:#96092b;fill-opacity:1;fill-rule:evenodd;stroke:none;stroke-width:0.80000001;stroke-miterlimit:4;stroke-dasharray:none" />
    <path
       style="fill:#ffffff;fill-opacity:1;fill-rule:evenodd;stroke:none"
       d="m 435.1875,368 c -11.60791,-0.0644 -18.62412,14.74493 -12,24 5.63456,9.4197 20.88287,8.89382 26,-0.6875 6.06039,-10.3475 -1.70823,-24.19242 -14,-23.3125 z"
       id="path3001-5"
       inkscape:connector-curvature="0" />
    <path
       inkscape:connector-curvature="0"
       id="path3001"
       d="m 435.99,369.98156 c -3.89352,0 -6.83073,1.36616 -9.56302,3.89356 -2.39076,2.73232 -3.7569,5.80618 -3.7569,9.3582 0,3.89355 1.36614,7.24066 3.7569,9.56312 2.73229,2.73233 5.6695,4.09849 9.56302,4.09849 3.48366,0 6.83073,-1.36616 9.56301,-4.09849 2.32244,-2.32246 3.68858,-5.66957 3.68858,-9.56312 0,-3.55202 -1.36614,-6.62588 -3.68858,-9.3582 -2.73228,-2.5274 -6.07935,-3.89356 -9.56301,-3.89356"
       style="fill:#a7a6a6;fill-opacity:1;fill-rule:evenodd;stroke:none" />
    <flowRoot
       style="font-style:normal;font-weight:normal;font-size:40px;line-height:125%;font-family:Sans;letter-spacing:-3.96999812px;word-spacing:0px;fill:#ffffff;fill-opacity:1;stroke:#4d4d4d;stroke-width:1px;stroke-linecap:butt;stroke-linejoin:miter;stroke-opacity:1"
       id="flowRoot3001"
       xml:space="preserve"
       transform="translate(0,12)"><flowRegion
         id="flowRegion3003" /><flowPara
         id="flowPara3007" /></flowRoot>    <text
       sodipodi:linespacing="125%"
       id="text3009"
       y="560.8064"
       x="151.68671"
       style="font-style:oblique;font-variant:normal;font-weight:normal;font-stretch:normal;font-size:66.40076447px;line-height:125%;font-family:Candara;-inkscape-font-specification:'Candara Oblique';text-align:start;letter-spacing:-4.0219326px;word-spacing:0px;writing-mode:lr-tb;text-anchor:start;fill:#ffffff;fill-opacity:1;stroke:#4d4d4d;stroke-width:1.89999998;stroke-miterlimit:4;stroke-dasharray:none"
       xml:space="preserve"><tspan
         style="font-style:oblique;font-variant:normal;font-weight:normal;font-stretch:normal;font-family:Arial;-inkscape-font-specification:'Arial Oblique';letter-spacing:-2.83886123px;word-spacing:0px;fill:#ffffff;fill-opacity:1;stroke:#4d4d4d;stroke-width:1.89999998;stroke-miterlimit:4;stroke-dasharray:none"
         y="560.8064"
         x="151.68671"
         id="tspan3011"
         sodipodi:role="line">AnyPyTools</tspan></text>
    <path
       inkscape:connector-curvature="0"
       id="path3043"
       d="m 373.22702,362.40959 c 0,0 51.11992,-13.30948 80.36012,-7.76386 0,0 5.54556,-7.8647 1.61326,-22.38413 l 25.30789,-2.01659 -85.60319,-49.30558 -99.11419,1.91575 24.09796,14.92276 c 0,0 -12.70435,4.03317 -14.01513,20.77086 0,0 59.18619,22.08164 67.35328,43.86079"
       style="fill:#3e4862;fill-opacity:1;fill-rule:nonzero;stroke:none" />
    <path
       inkscape:connector-curvature="0"
       id="path3045"
       d="m 319.48555,297.47545 62.71519,37.10523 73.70545,-2.31908 c 0,0 3.52899,15.12441 -2.31905,22.38413 0,0 -31.66007,-4.43649 -80.56178,8.46966 0,0 -5.04142,-20.06505 -67.15162,-44.56659 0,0 0,-15.4269 13.61181,-21.07335"
       style="fill:#595f79;fill-opacity:1;fill-rule:nonzero;stroke:none" />
    <path
       inkscape:connector-curvature="0"
       id="path3047"
       d="m 276.73437,328.02677 c -1.91573,10.08293 28.43357,22.78743 28.43357,22.78743 0,0 4.13396,3.93235 -1.31076,1.31079 -14.51928,-7.05805 -11.3936,-4.63815 -8.16709,-1.71411 3.2265,2.92406 1.61324,8.26802 -4.63811,-0.50414 0,0 -4.03312,-3.52903 -4.13395,-0.10086 -0.20166,3.32737 -0.80662,6.75557 -4.73893,4.23484 -4.03314,-2.52074 -8.46957,-14.62027 -10.18365,-11.09123 -1.51243,3.32737 -4.63811,9.88128 -6.15053,4.94064 -1.61325,-4.83982 -1.41159,-6.15061 -3.02485,-3.32738 -1.61325,2.82323 -3.22649,6.25142 -4.94057,-2.82323 -1.91574,-9.07465 -1.10912,0.90747 -3.12569,3.42821 -2.01657,2.62156 -3.93231,-15.52774 -7.76377,-6.04977 -0.90745,2.0166 -4.94059,7.25972 -3.529,3.12572 1.4116,-4.03318 4.33563,-17.84681 12.30106,-28.83721 7.8646,-11.09125 35.28988,-4.83982 35.28988,-4.83982 9.98201,1.41161 28.53441,1.41161 31.15594,-13.30948 2.52071,-14.72109 19.86316,-10.18376 19.86316,-10.18376 19.66152,3.52903 41.33959,14.31777 41.33959,14.31777 0,0 6.55383,-1.81493 9.78035,2.31908 3.42816,4.23483 1.41159,9.47795 -6.04971,5.8481 0,0 -4.83975,-2.52074 -4.83975,-6.75557 0,0 -27.52612,-10.58708 -33.1725,-11.79705 -5.64638,-1.10911 -19.96398,-3.73069 -22.98884,3.12572 -3.02485,6.95724 0.30249,16.83851 -23.19051,19.96422 0,0 -5.94886,0.10085 -9.57868,-0.50415 0,0 -13.20849,-2.31907 -16.63666,16.43521"
       style="fill:#a7a6a6;fill-opacity:1;fill-rule:nonzero;stroke:none" />
  </g>
</svg>
